<svg xmlns="http://www.w3.org/2000/svg" viewBox="60.25 88.22 302.13 105.10" role="img" aria-label="Acreditación en Institucionalidad y Transparencia — Cemefi">
<path fill="#ffffff" d="M 111.02 178.45 C 106.12 178.45 101.87 175.74 99.66 171.74 L 88.27 177.73 C 92.64 185.82 101.18 191.32 111.02 191.32 C 115.27 191.32 119.28 190.29 122.81 188.46 L 116.81 177.07 C 115.07 177.95 113.11 178.45 111.02 178.45"/>
<path fill="#ffffff" d="M 77.5 148.4 C 76.01 143.74 77.29 138.86 80.42 135.53 L 71.22 126.52 C 64.86 133.15 62.25 142.97 65.26 152.34 C 66.56 156.38 68.77 159.88 71.59 162.69 L 80.59 153.49 C 79.22 152.1 78.14 150.38 77.5 148.4"/>
<path fill="#ffffff" d="M 96.48 106.88 C 100.46 104.04 105.51 103.79 109.63 105.77 L 115.43 94.28 C 107.18 90.22 97.04 90.7 89.02 96.4 C 85.56 98.86 82.89 102.03 81.06 105.56 L 92.55 111.36 C 93.47 109.64 94.78 108.09 96.48 106.88"/>
<path fill="#ffffff" d="M 141.32 111.69 C 145.23 114.64 146.98 119.38 146.33 123.9 L 159.03 125.99 C 160.43 116.91 156.93 107.37 149.09 101.43 C 145.7 98.87 141.88 97.27 137.96 96.59 L 135.87 109.29 C 137.79 109.65 139.66 110.43 141.32 111.69"/>
<path fill="#ffffff" d="M 116.93 121.93 C 120.91 119.09 125.96 118.83 130.08 120.81 L 135.87 109.32 C 127.62 105.27 117.48 105.75 109.46 111.45 C 106 113.92 103.34 117.09 101.51 120.62 L 113.01 126.41 C 113.92 124.69 115.23 123.14 116.93 121.93"/>
<path fill="#ffffff" d="M 133.54 135.96 C 137.48 138.89 139.27 143.64 138.64 148.19 L 151.41 150.18 C 152.76 141.03 149.19 131.47 141.28 125.58 C 137.86 123.03 134.02 121.46 130.08 120.81 L 128.05 133.6 C 129.98 133.94 131.86 134.71 133.54 135.96"/>
<path fill="#ffffff" d="M 98.27 133.39 C 96.89 128.7 98.29 123.85 101.51 120.6 L 92.55 111.36 C 86.02 117.83 83.16 127.57 85.92 137.01 C 87.12 141.09 89.24 144.64 91.98 147.53 L 101.22 138.57 C 99.89 137.14 98.85 135.39 98.27 133.39"/>
<path fill="#ffffff" d="M 103.34 154.29 C 98.44 154.27 94.19 151.54 92 147.53 L 80.59 153.48 C 84.93 161.58 93.45 167.11 103.29 167.15 C 107.54 167.16 111.55 166.15 115.09 164.34 L 109.14 152.93 C 107.39 153.8 105.42 154.29 103.34 154.29"/>
<path fill="#ffffff" d="M 125.21 155.93 C 123.56 160.54 119.57 163.63 115.05 164.36 L 116.85 177.1 C 125.93 175.72 134 169.53 137.32 160.28 C 138.75 156.28 139.14 152.16 138.62 148.21 L 125.87 150.01 C 126.11 151.95 125.92 153.97 125.21 155.93"/>
<path fill="#ffffff" d="M 150.79 156.07 C 149.19 160.7 145.23 163.83 140.72 164.6 L 142.66 177.33 C 151.73 175.86 159.72 169.58 162.95 160.29 C 164.34 156.27 164.68 152.15 164.12 148.21 L 151.39 150.15 C 151.64 152.08 151.48 154.1 150.79 156.07"/>
<path fill="#ffffff" d="M 182.29 123.69 L 183.14 123.69 C 183.51 123.69 183.7 123.52 183.7 123.16 L 183.7 113.15 C 183.7 112.78 183.51 112.62 183.14 112.62 L 182.29 112.62 L 182.29 111.21 L 188.43 111.21 L 188.43 112.62 L 187.57 112.62 C 187.21 112.62 187.02 112.78 187.02 113.15 L 187.02 123.16 C 187.02 123.52 187.21 123.69 187.57 123.69 L 188.43 123.69 L 188.43 125.1 L 182.29 125.1 Z M 182.29 123.69"/>
<path fill="#ffffff" d="M 189.7 123.69 L 190.29 123.69 C 190.66 123.69 190.84 123.52 190.84 123.16 L 190.84 117.18 C 190.84 116.79 190.66 116.62 190.29 116.62 L 189.7 116.62 L 189.7 115.23 L 193.46 115.23 C 193.82 115.23 194.01 115.39 194.01 115.76 L 194.01 116.4 L 194.09 116.4 C 194.7 115.72 195.79 115.03 197.3 115.03 C 199.42 115.03 200.38 116.07 200.38 118.18 L 200.38 123.16 C 200.38 123.52 200.57 123.69 200.93 123.69 L 201.53 123.69 L 201.53 125.1 L 196.15 125.1 L 196.15 123.69 L 196.68 123.69 C 197.03 123.69 197.21 123.52 197.21 123.16 L 197.21 118.64 C 197.21 117.54 196.77 117.11 195.83 117.11 C 195.03 117.11 194.4 117.48 194.01 117.85 L 194.01 123.16 C 194.01 123.52 194.2 123.69 194.56 123.69 L 195.09 123.69 L 195.09 125.1 L 189.7 125.1 Z M 189.7 123.69"/>
<path fill="#ffffff" d="M 202.61 122.02 L 204.14 122.02 L 204.14 122.36 C 204.14 122.75 204.22 123.05 204.43 123.28 C 204.73 123.65 205.35 123.79 206.35 123.79 C 207.88 123.79 208.31 123.42 208.31 122.69 C 208.31 121.91 207.57 121.71 206.33 121.4 C 204.49 120.93 202.71 120.4 202.71 118.07 C 202.71 116.09 204.14 115.03 207.33 115.03 C 208.33 115.03 209.51 115.17 210.09 115.36 C 210.52 115.5 210.68 115.68 210.68 116.09 L 210.68 118.11 L 209.14 118.11 L 209.14 117.87 C 209.14 117.48 209.06 117.17 208.84 116.95 C 208.57 116.66 208.04 116.54 207.14 116.54 C 205.92 116.54 205.47 116.89 205.47 117.48 C 205.47 118.21 206.18 118.46 207.47 118.79 C 209.31 119.26 211 119.64 211 121.99 C 211 124.2 209.21 125.3 206.41 125.3 C 205.06 125.3 203.86 125.16 203.2 124.95 C 202.77 124.81 202.61 124.63 202.61 124.22 Z M 202.61 122.02"/>
<path fill="#ffffff" d="M 213.13 116.75 L 212 116.75 L 212 115.46 C 212.84 115.36 213.52 115.01 213.99 114.41 C 214.36 113.96 214.58 113.36 214.68 112.56 L 216.3 112.56 L 216.3 115.23 L 218.54 115.23 L 218.54 116.75 L 216.3 116.75 L 216.3 121.89 C 216.3 123.04 216.62 123.4 217.52 123.4 C 217.91 123.4 218.18 123.34 218.42 123.24 L 218.62 123.24 L 218.62 125 C 218.18 125.18 217.38 125.3 216.38 125.3 C 214.17 125.3 213.13 124.46 213.13 122.42 Z M 213.13 116.75"/>
<path fill="#ffffff" d="M 222.36 110.09 C 223.46 110.09 224.16 110.64 224.16 111.76 C 224.16 112.84 223.46 113.41 222.36 113.41 C 221.28 113.41 220.61 112.84 220.61 111.76 C 220.61 110.64 221.28 110.09 222.36 110.09 M 219.67 123.69 L 220.26 123.69 C 220.62 123.69 220.81 123.52 220.81 123.16 L 220.81 117.18 C 220.81 116.79 220.62 116.62 220.26 116.62 L 219.67 116.62 L 219.67 115.23 L 223.43 115.23 C 223.79 115.23 223.98 115.39 223.98 115.76 L 223.98 123.16 C 223.98 123.52 224.16 123.69 224.53 123.69 L 225.12 123.69 L 225.12 125.1 L 219.67 125.1 Z M 219.67 123.69"/>
<path fill="#ffffff" d="M 227.12 116.75 L 226 116.75 L 226 115.46 C 226.84 115.36 227.51 115.01 227.98 114.41 C 228.35 113.96 228.57 113.36 228.67 112.56 L 230.29 112.56 L 230.29 115.23 L 232.54 115.23 L 232.54 116.75 L 230.29 116.75 L 230.29 121.89 C 230.29 123.04 230.61 123.4 231.51 123.4 C 231.9 123.4 232.17 123.34 232.41 123.24 L 232.62 123.24 L 232.62 125 C 232.17 125.18 231.37 125.3 230.37 125.3 C 228.16 125.3 227.12 124.46 227.12 122.42 Z M 227.12 116.75"/>
<path fill="#ffffff" d="M 234.45 117.17 C 234.45 116.79 234.27 116.62 233.93 116.62 L 233.33 116.62 L 233.33 115.23 L 237.09 115.23 C 237.44 115.23 237.62 115.39 237.62 115.76 L 237.62 121.66 C 237.62 122.79 238.07 123.22 239.03 123.22 C 239.82 123.22 240.46 122.83 240.83 122.46 L 240.83 117.17 C 240.83 116.79 240.64 116.62 240.3 116.62 L 239.56 116.62 L 239.56 115.23 L 243.46 115.23 C 243.81 115.23 243.99 115.39 243.99 115.76 L 243.99 123.16 C 243.99 123.52 244.18 123.69 244.54 123.69 L 245.14 123.69 L 245.14 125.1 L 241.56 125.1 C 241.05 125.1 240.83 124.87 240.83 124.42 L 240.83 123.93 L 240.75 123.93 C 240.13 124.61 239.05 125.3 237.56 125.3 C 235.41 125.3 234.45 124.24 234.45 122.16 Z M 234.45 117.17"/>
<path fill="#ffffff" d="M 254.7 122.97 L 254.7 124.75 C 254.16 125.04 252.7 125.3 251.63 125.3 C 248.02 125.3 246.16 123.57 246.16 120.34 C 246.16 117.25 248.1 115.03 251.65 115.03 C 252.51 115.03 253.53 115.19 253.96 115.34 C 254.39 115.5 254.53 115.66 254.53 116.07 L 254.53 118.18 L 253 118.18 L 253 117.85 C 253 117.48 252.92 117.19 252.74 116.97 C 252.53 116.7 252.16 116.58 251.65 116.58 C 250.24 116.58 249.51 117.7 249.51 120.16 C 249.51 122.46 250.53 123.36 252.45 123.36 C 253.19 123.36 254.02 123.2 254.49 122.97 Z M 254.7 122.97"/>
<path fill="#ffffff" d="M 258.62 110.09 C 259.72 110.09 260.42 110.64 260.42 111.76 C 260.42 112.84 259.72 113.41 258.62 113.41 C 257.54 113.41 256.86 112.84 256.86 111.76 C 256.86 110.64 257.54 110.09 258.62 110.09 M 255.92 123.69 L 256.52 123.69 C 256.88 123.69 257.07 123.52 257.07 123.16 L 257.07 117.18 C 257.07 116.79 256.88 116.62 256.52 116.62 L 255.92 116.62 L 255.92 115.23 L 259.68 115.23 C 260.05 115.23 260.23 115.39 260.23 115.76 L 260.23 123.16 C 260.23 123.52 260.42 123.69 260.79 123.69 L 261.38 123.69 L 261.38 125.1 L 255.92 125.1 Z M 255.92 123.69"/>
<path fill="#ffffff" d="M 269.59 120.18 C 269.59 117.64 269 116.54 267.65 116.54 C 266.34 116.54 265.75 117.66 265.75 120.18 C 265.75 122.71 266.34 123.79 267.67 123.79 C 269 123.79 269.59 122.69 269.59 120.18 M 262.4 120.21 C 262.4 117.01 264.38 115.03 267.69 115.03 C 271 115.03 272.94 116.68 272.94 120.07 C 272.94 123.4 270.83 125.3 267.65 125.3 C 264.34 125.3 262.4 123.59 262.4 120.21"/>
<path fill="#ffffff" d="M 274.08 123.69 L 274.68 123.69 C 275.04 123.69 275.23 123.52 275.23 123.16 L 275.23 117.18 C 275.23 116.79 275.04 116.62 274.68 116.62 L 274.08 116.62 L 274.08 115.23 L 277.84 115.23 C 278.21 115.23 278.39 115.39 278.39 115.76 L 278.39 116.4 L 278.47 116.4 C 279.09 115.72 280.17 115.03 281.68 115.03 C 283.8 115.03 284.77 116.07 284.77 118.18 L 284.77 123.16 C 284.77 123.52 284.95 123.69 285.32 123.69 L 285.91 123.69 L 285.91 125.1 L 280.54 125.1 L 280.54 123.69 L 281.07 123.69 C 281.41 123.69 281.6 123.52 281.6 123.16 L 281.6 118.64 C 281.6 117.54 281.15 117.11 280.21 117.11 C 279.41 117.11 278.78 117.48 278.39 117.85 L 278.39 123.16 C 278.39 123.52 278.57 123.69 278.94 123.69 L 279.47 123.69 L 279.47 125.1 L 274.08 125.1 Z M 274.08 123.69"/>
<path fill="#ffffff" d="M 292.57 120.83 L 291.91 120.83 C 290.48 120.83 289.91 121.3 289.91 122.24 C 289.91 123.12 290.38 123.55 291.1 123.55 C 291.81 123.55 292.36 123.14 292.57 122.79 Z M 287.54 115.62 C 288.22 115.27 289.65 115.03 291.36 115.03 C 294.69 115.03 295.73 115.82 295.73 118.23 L 295.73 123.04 C 295.73 123.57 295.94 123.69 296.45 123.69 L 296.88 123.69 L 296.88 125.1 C 296.37 125.18 295.32 125.3 294.3 125.3 C 293.06 125.3 292.77 124.87 292.77 124.02 L 292.69 124.02 C 292.2 124.57 291.34 125.3 289.83 125.3 C 287.77 125.3 286.77 124.18 286.77 122.59 C 286.77 120.54 288.12 119.5 291.48 119.5 L 292.57 119.5 L 292.57 118.71 C 292.57 117.42 292.06 116.97 290.38 116.97 C 289.28 116.97 288.3 117.13 287.77 117.4 L 287.54 117.4 Z M 287.54 115.62"/>
<path fill="#ffffff" d="M 297.66 123.69 L 298.25 123.69 C 298.59 123.69 298.78 123.52 298.78 123.16 L 298.78 111.82 C 298.78 111.45 298.59 111.29 298.25 111.29 L 297.66 111.29 L 297.66 109.88 L 301.41 109.88 C 301.76 109.88 301.95 110.05 301.95 110.43 L 301.95 123.16 C 301.95 123.52 302.13 123.69 302.5 123.69 L 303.09 123.69 L 303.09 125.1 L 297.66 125.1 Z M 297.66 123.69"/>
<path fill="#ffffff" d="M 306.8 110.09 C 307.91 110.09 308.6 110.64 308.6 111.76 C 308.6 112.84 307.91 113.41 306.8 113.41 C 305.72 113.41 305.05 112.84 305.05 111.76 C 305.05 110.64 305.72 110.09 306.8 110.09 M 304.11 123.69 L 304.7 123.69 C 305.07 123.69 305.25 123.52 305.25 123.16 L 305.25 117.18 C 305.25 116.79 305.07 116.62 304.7 116.62 L 304.11 116.62 L 304.11 115.23 L 307.87 115.23 C 308.23 115.23 308.42 115.39 308.42 115.76 L 308.42 123.16 C 308.42 123.52 308.6 123.69 308.97 123.69 L 309.56 123.69 L 309.56 125.1 L 304.11 125.1 Z M 304.11 123.69"/>
<path fill="#ffffff" d="M 317.57 116.7 C 317.36 116.64 317.12 116.58 316.79 116.58 C 314.89 116.58 313.93 117.75 313.93 120.14 C 313.93 122.36 314.77 123.32 316.04 123.32 C 316.81 123.32 317.34 122.95 317.57 122.61 Z M 317.57 123.95 L 317.49 123.95 C 317.04 124.61 316.2 125.3 314.65 125.3 C 312.2 125.3 310.59 123.57 310.59 120.44 C 310.59 117.13 312.89 115.03 316.12 115.03 C 316.69 115.03 317.2 115.09 317.57 115.19 L 317.57 111.82 C 317.57 111.45 317.39 111.29 317.04 111.29 L 316.43 111.29 L 316.43 109.88 L 320.2 109.88 C 320.55 109.88 320.73 110.04 320.73 110.43 L 320.73 123.16 C 320.73 123.52 320.92 123.69 321.29 123.69 L 321.88 123.69 L 321.88 125.1 L 318.12 125.1 C 317.75 125.1 317.57 124.93 317.57 124.55 Z M 317.57 123.95"/>
<path fill="#ffffff" d="M 328.56 120.83 L 327.91 120.83 C 326.48 120.83 325.91 121.3 325.91 122.24 C 325.91 123.12 326.38 123.55 327.09 123.55 C 327.8 123.55 328.36 123.14 328.56 122.79 Z M 323.54 115.62 C 324.21 115.27 325.64 115.03 327.36 115.03 C 330.68 115.03 331.73 115.82 331.73 118.23 L 331.73 123.04 C 331.73 123.57 331.93 123.69 332.44 123.69 L 332.87 123.69 L 332.87 125.1 C 332.36 125.18 331.32 125.3 330.3 125.3 C 329.05 125.3 328.76 124.87 328.76 124.02 L 328.68 124.02 C 328.19 124.57 327.33 125.3 325.82 125.3 C 323.76 125.3 322.76 124.18 322.76 122.59 C 322.76 120.54 324.11 119.5 327.48 119.5 L 328.56 119.5 L 328.56 118.71 C 328.56 117.42 328.05 116.97 326.38 116.97 C 325.27 116.97 324.29 117.13 323.76 117.4 L 323.54 117.4 Z M 323.54 115.62"/>
<path fill="#ffffff" d="M 340.75 116.7 C 340.55 116.64 340.3 116.58 339.98 116.58 C 338.08 116.58 337.12 117.75 337.12 120.14 C 337.12 122.36 337.96 123.32 339.22 123.32 C 340 123.32 340.53 122.95 340.75 122.61 Z M 340.75 123.95 L 340.67 123.95 C 340.22 124.61 339.39 125.3 337.83 125.3 C 335.38 125.3 333.77 123.57 333.77 120.44 C 333.77 117.13 336.08 115.03 339.3 115.03 C 339.88 115.03 340.39 115.09 340.75 115.19 L 340.75 111.82 C 340.75 111.45 340.57 111.29 340.22 111.29 L 339.61 111.29 L 339.61 109.88 L 343.39 109.88 C 343.73 109.88 343.92 110.04 343.92 110.43 L 343.92 123.16 C 343.92 123.52 344.1 123.69 344.47 123.69 L 345.06 123.69 L 345.06 125.1 L 341.3 125.1 C 340.94 125.1 340.75 124.93 340.75 124.55 Z M 340.75 123.95"/>
<path fill="#ffffff" d="M 350.03 127.98 L 350.25 127.98 C 350.56 128.08 350.97 128.12 351.38 128.12 C 352.7 128.12 353.38 127.71 353.79 126.63 L 354.07 125.93 L 350.6 117.32 C 350.39 116.82 350.21 116.62 349.64 116.62 L 349.44 116.62 L 349.44 115.23 L 354.81 115.23 L 354.81 116.62 L 354.13 116.62 C 353.91 116.62 353.77 116.75 353.77 116.93 C 353.77 117.09 353.85 117.3 353.91 117.5 L 355.66 122.3 L 355.75 122.3 L 357.42 117.5 C 357.5 117.3 357.57 117.07 357.57 116.93 C 357.57 116.75 357.44 116.62 357.22 116.62 L 356.56 116.62 L 356.56 115.23 L 360.38 115.23 L 360.38 116.62 L 360.18 116.62 C 359.62 116.62 359.42 116.82 359.22 117.38 L 355.52 127.1 C 354.81 129 353.44 129.9 351.39 129.9 C 350.95 129.9 350.38 129.88 350.03 129.82 Z M 350.03 127.98"/>
<path fill="#ffffff" d="M 184.9 137.29 C 184.18 137.29 183.88 137.64 183.88 138.36 L 183.88 139.42 L 182.29 139.42 L 182.29 136.27 C 182.29 135.91 182.45 135.72 182.82 135.72 L 194.8 135.72 C 195.15 135.72 195.34 135.91 195.34 136.27 L 195.34 139.42 L 193.74 139.42 L 193.74 138.36 C 193.74 137.64 193.44 137.29 192.7 137.29 L 190.48 137.29 L 190.48 147.67 C 190.48 148.04 190.66 148.2 191.03 148.2 L 192.09 148.2 L 192.09 149.61 L 185.53 149.61 L 185.53 148.2 L 186.59 148.2 C 186.96 148.2 187.14 148.04 187.14 147.67 L 187.14 137.29 Z M 184.9 137.29"/>
<path fill="#ffffff" d="M 195.99 148.2 L 196.58 148.2 C 196.95 148.2 197.14 148.04 197.14 147.67 L 197.14 141.69 C 197.14 141.3 196.95 141.13 196.58 141.13 L 195.99 141.13 L 195.99 139.75 L 199.75 139.75 C 200.12 139.75 200.3 139.91 200.3 140.27 L 200.3 141.4 L 200.36 141.4 C 200.79 140.46 201.71 139.5 203 139.5 C 203.26 139.5 203.49 139.52 203.69 139.58 L 203.69 142.01 L 203.49 142.01 C 203.26 141.95 203 141.93 202.67 141.93 C 201.63 141.93 200.75 142.3 200.3 142.87 L 200.3 147.67 C 200.3 148.04 200.48 148.2 200.85 148.2 L 201.77 148.2 L 201.77 149.61 L 195.99 149.61 Z M 195.99 148.2"/>
<path fill="#ffffff" d="M 210.02 145.34 L 209.37 145.34 C 207.94 145.34 207.37 145.81 207.37 146.75 C 207.37 147.63 207.84 148.06 208.55 148.06 C 209.27 148.06 209.82 147.65 210.02 147.3 Z M 205 140.13 C 205.67 139.79 207.11 139.54 208.82 139.54 C 212.15 139.54 213.19 140.34 213.19 142.75 L 213.19 147.55 C 213.19 148.08 213.39 148.2 213.91 148.2 L 214.33 148.2 L 214.33 149.61 C 213.82 149.69 212.78 149.81 211.76 149.81 C 210.52 149.81 210.23 149.38 210.23 148.53 L 210.15 148.53 C 209.66 149.08 208.8 149.81 207.29 149.81 C 205.22 149.81 204.22 148.69 204.22 147.1 C 204.22 145.05 205.57 144.01 208.94 144.01 L 210.02 144.01 L 210.02 143.22 C 210.02 141.93 209.51 141.48 207.84 141.48 C 206.73 141.48 205.75 141.64 205.22 141.91 L 205 141.91 Z M 205 140.13"/>
<path fill="#ffffff" d="M 215.32 148.2 L 215.91 148.2 C 216.27 148.2 216.46 148.04 216.46 147.67 L 216.46 141.69 C 216.46 141.3 216.27 141.13 215.91 141.13 L 215.32 141.13 L 215.32 139.75 L 219.07 139.75 C 219.44 139.75 219.62 139.91 219.62 140.27 L 219.62 140.91 L 219.71 140.91 C 220.32 140.23 221.4 139.54 222.91 139.54 C 225.04 139.54 226 140.58 226 142.69 L 226 147.67 C 226 148.04 226.18 148.2 226.55 148.2 L 227.14 148.2 L 227.14 149.61 L 221.77 149.61 L 221.77 148.2 L 222.3 148.2 C 222.65 148.2 222.83 148.04 222.83 147.67 L 222.83 143.16 C 222.83 142.05 222.38 141.62 221.44 141.62 C 220.64 141.62 220.01 141.99 219.62 142.36 L 219.62 147.67 C 219.62 148.04 219.81 148.2 220.18 148.2 L 220.71 148.2 L 220.71 149.61 L 215.32 149.61 Z M 215.32 148.2"/>
<path fill="#ffffff" d="M 228.23 146.53 L 229.76 146.53 L 229.76 146.87 C 229.76 147.26 229.84 147.57 230.04 147.79 C 230.35 148.16 230.96 148.3 231.96 148.3 C 233.49 148.3 233.92 147.93 233.92 147.2 C 233.92 146.42 233.19 146.22 231.94 145.91 C 230.11 145.44 228.33 144.91 228.33 142.59 C 228.33 140.6 229.76 139.54 232.94 139.54 C 233.94 139.54 235.13 139.68 235.7 139.87 C 236.13 140.01 236.29 140.2 236.29 140.6 L 236.29 142.62 L 234.76 142.62 L 234.76 142.38 C 234.76 141.99 234.68 141.68 234.45 141.46 C 234.19 141.18 233.66 141.05 232.76 141.05 C 231.54 141.05 231.09 141.4 231.09 141.99 C 231.09 142.73 231.8 142.97 233.09 143.3 C 234.93 143.77 236.62 144.16 236.62 146.5 C 236.62 148.71 234.82 149.81 232.02 149.81 C 230.68 149.81 229.47 149.67 228.82 149.46 C 228.39 149.32 228.23 149.14 228.23 148.73 Z M 228.23 146.53"/>
<path fill="#ffffff" d="M 242.03 148.16 C 242.21 148.22 242.48 148.24 242.81 148.24 C 244.71 148.24 245.67 147.1 245.67 144.71 C 245.67 142.48 244.83 141.52 243.57 141.52 C 242.79 141.52 242.26 141.89 242.03 142.24 Z M 237.72 152.71 L 238.32 152.71 C 238.66 152.71 238.87 152.55 238.87 152.18 L 238.87 141.68 C 238.87 141.3 238.68 141.13 238.32 141.13 L 237.72 141.13 L 237.72 139.74 L 241.48 139.74 C 241.85 139.74 242.03 139.91 242.03 140.27 L 242.03 140.89 L 242.11 140.89 C 242.58 140.23 243.4 139.54 244.95 139.54 C 247.41 139.54 249.04 141.28 249.04 144.4 C 249.04 147.71 246.71 149.81 243.48 149.81 C 242.91 149.81 242.42 149.77 242.03 149.67 L 242.03 152.18 C 242.03 152.55 242.24 152.71 242.58 152.71 L 243.38 152.71 L 243.38 154.2 L 237.72 154.2 Z M 237.72 152.71"/>
<path fill="#ffffff" d="M 255.84 145.34 L 255.19 145.34 C 253.76 145.34 253.19 145.81 253.19 146.75 C 253.19 147.63 253.66 148.06 254.37 148.06 C 255.09 148.06 255.64 147.65 255.84 147.3 Z M 250.82 140.13 C 251.49 139.79 252.92 139.54 254.64 139.54 C 257.96 139.54 259.01 140.34 259.01 142.75 L 259.01 147.55 C 259.01 148.08 259.21 148.2 259.72 148.2 L 260.15 148.2 L 260.15 149.61 C 259.64 149.69 258.6 149.81 257.58 149.81 C 256.33 149.81 256.04 149.38 256.04 148.53 L 255.96 148.53 C 255.47 149.08 254.62 149.81 253.11 149.81 C 251.04 149.81 250.04 148.69 250.04 147.1 C 250.04 145.05 251.39 144.01 254.76 144.01 L 255.84 144.01 L 255.84 143.22 C 255.84 141.93 255.33 141.48 253.66 141.48 C 252.55 141.48 251.57 141.64 251.04 141.91 L 250.82 141.91 Z M 250.82 140.13"/>
<path fill="#ffffff" d="M 261.13 148.2 L 261.72 148.2 C 262.09 148.2 262.28 148.04 262.28 147.67 L 262.28 141.69 C 262.28 141.3 262.09 141.13 261.72 141.13 L 261.13 141.13 L 261.13 139.75 L 264.89 139.75 C 265.26 139.75 265.44 139.91 265.44 140.27 L 265.44 141.4 L 265.5 141.4 C 265.93 140.46 266.85 139.5 268.14 139.5 C 268.4 139.5 268.63 139.52 268.83 139.58 L 268.83 142.01 L 268.63 142.01 C 268.4 141.95 268.14 141.93 267.81 141.93 C 266.77 141.93 265.89 142.3 265.44 142.87 L 265.44 147.67 C 265.44 148.04 265.62 148.2 265.99 148.2 L 266.91 148.2 L 266.91 149.61 L 261.13 149.61 Z M 261.13 148.2"/>
<path fill="#ffffff" d="M 275.45 143.44 C 275.86 143.44 276.04 143.3 276.04 142.93 C 276.04 141.62 275.51 141.01 274.57 141.01 C 273.49 141.01 272.88 141.97 272.82 143.44 Z M 272.8 144.85 C 272.8 146.89 273.8 147.87 275.82 147.87 C 276.86 147.87 277.84 147.69 278.35 147.43 L 278.57 147.43 L 278.57 149.2 C 278.02 149.53 276.51 149.81 274.96 149.81 C 271.16 149.81 269.45 147.98 269.45 144.83 C 269.45 141.6 271.37 139.54 274.7 139.54 C 277.68 139.54 279.11 141.16 279.11 143.44 C 279.11 143.97 279.07 144.44 279.02 144.77 L 272.8 144.77 Z M 272.8 144.85"/>
<path fill="#ffffff" d="M 280.33 148.2 L 280.93 148.2 C 281.29 148.2 281.48 148.04 281.48 147.67 L 281.48 141.69 C 281.48 141.3 281.29 141.13 280.93 141.13 L 280.33 141.13 L 280.33 139.75 L 284.09 139.75 C 284.46 139.75 284.64 139.91 284.64 140.27 L 284.64 140.91 L 284.72 140.91 C 285.34 140.23 286.42 139.54 287.93 139.54 C 290.05 139.54 291.02 140.58 291.02 142.69 L 291.02 147.67 C 291.02 148.04 291.2 148.2 291.57 148.2 L 292.16 148.2 L 292.16 149.61 L 286.79 149.61 L 286.79 148.2 L 287.32 148.2 C 287.66 148.2 287.85 148.04 287.85 147.67 L 287.85 143.16 C 287.85 142.05 287.4 141.62 286.46 141.62 C 285.66 141.62 285.03 141.99 284.64 142.36 L 284.64 147.67 C 284.64 148.04 284.83 148.2 285.2 148.2 L 285.72 148.2 L 285.72 149.61 L 280.33 149.61 Z M 280.33 148.2"/>
<path fill="#ffffff" d="M 301.59 147.48 L 301.59 149.26 C 301.07 149.55 299.59 149.81 298.53 149.81 C 294.92 149.81 293.06 148.08 293.06 144.85 C 293.06 141.77 295 139.54 298.55 139.54 C 299.41 139.54 300.43 139.7 300.86 139.85 C 301.29 140.01 301.43 140.18 301.43 140.58 L 301.43 142.69 L 299.9 142.69 L 299.9 142.36 C 299.9 141.99 299.82 141.7 299.64 141.48 C 299.43 141.21 299.06 141.09 298.55 141.09 C 297.14 141.09 296.41 142.21 296.41 144.67 C 296.41 146.98 297.43 147.88 299.35 147.88 C 300.09 147.88 300.92 147.71 301.39 147.48 Z M 301.59 147.48"/>
<path fill="#ffffff" d="M 305.52 134.6 C 306.62 134.6 307.32 135.15 307.32 136.27 C 307.32 137.36 306.62 137.93 305.52 137.93 C 304.44 137.93 303.76 137.36 303.76 136.27 C 303.76 135.15 304.44 134.6 305.52 134.6 M 302.82 148.2 L 303.41 148.2 C 303.78 148.2 303.96 148.04 303.96 147.67 L 303.96 141.69 C 303.96 141.3 303.78 141.13 303.41 141.13 L 302.82 141.13 L 302.82 139.75 L 306.58 139.75 C 306.95 139.75 307.13 139.91 307.13 140.27 L 307.13 147.67 C 307.13 148.04 307.32 148.2 307.68 148.2 L 308.27 148.2 L 308.27 149.61 L 302.82 149.61 Z M 302.82 148.2"/>
<path fill="#ffffff" d="M 315.06 145.34 L 314.4 145.34 C 312.97 145.34 312.4 145.81 312.4 146.75 C 312.4 147.63 312.87 148.06 313.59 148.06 C 314.3 148.06 314.85 147.65 315.06 147.3 Z M 310.03 140.13 C 310.71 139.79 312.14 139.54 313.85 139.54 C 317.18 139.54 318.22 140.34 318.22 142.75 L 318.22 147.55 C 318.22 148.08 318.43 148.2 318.94 148.2 L 319.37 148.2 L 319.37 149.61 C 318.86 149.69 317.82 149.81 316.79 149.81 C 315.55 149.81 315.26 149.38 315.26 148.53 L 315.18 148.53 C 314.69 149.08 313.83 149.81 312.32 149.81 C 310.26 149.81 309.26 148.69 309.26 147.1 C 309.26 145.05 310.61 144.01 313.98 144.01 L 315.06 144.01 L 315.06 143.22 C 315.06 141.93 314.55 141.48 312.87 141.48 C 311.77 141.48 310.79 141.64 310.26 141.91 L 310.03 141.91 Z M 310.03 140.13"/>
<path fill="#ffffff" d="M 193.11 169.28 L 193.93 169.28 L 193.93 171.91 C 193.93 172.36 193.74 172.48 193.38 172.61 C 192.66 172.84 191.51 173.05 189.7 173.05 C 185.25 173.05 182.29 170.61 182.29 165.81 C 182.29 161.07 185.4 158.36 189.78 158.36 C 191.25 158.36 192.39 158.57 193.11 158.8 C 193.48 158.95 193.68 159.05 193.68 159.49 L 193.68 162.02 L 192.86 162.02 L 192.86 161.07 C 192.86 160.48 192.77 160.08 192.45 159.79 C 192.03 159.39 191.17 159.18 189.74 159.18 C 186.22 159.18 183.7 161.32 183.7 165.72 C 183.7 170.25 186.22 172.23 189.78 172.23 C 191.55 172.23 192.37 172.02 192.77 171.6 C 193.04 171.3 193.11 170.93 193.11 170.33 Z M 193.11 169.28"/>
<path fill="#ffffff" d="M 202.39 166.73 C 202.7 166.73 202.83 166.61 202.83 166.23 C 202.83 164.63 202.01 163.41 200.35 163.41 C 198.45 163.41 197.46 164.8 197.25 166.73 Z M 197.21 167.66 C 197.21 170.84 198.54 172.14 201.12 172.14 C 202.09 172.14 203.11 171.89 203.63 171.6 L 203.76 171.6 L 203.76 172.42 C 203.27 172.73 202.11 173.05 200.7 173.05 C 197.59 173.05 195.93 171.16 195.93 167.87 C 195.93 164.75 197.69 162.65 200.39 162.65 C 202.85 162.65 204.07 164.36 204.07 166.48 C 204.07 166.78 204.07 167.16 204.03 167.45 L 197.21 167.45 Z M 197.21 167.66"/>
<path fill="#ffffff" d="M 217.9 172.14 L 219.02 172.14 C 219.31 172.14 219.42 172 219.42 171.7 L 219.42 165.81 C 219.42 164.29 218.79 163.6 217.31 163.6 C 216.34 163.6 215.34 164.1 214.62 164.8 C 214.66 165.01 214.68 165.26 214.68 165.51 L 214.68 171.7 C 214.68 172 214.79 172.14 215.08 172.14 L 216.2 172.14 L 216.2 172.86 L 211.96 172.86 L 211.96 172.14 L 213.08 172.14 C 213.36 172.14 213.48 172 213.48 171.7 L 213.48 165.81 C 213.48 164.29 212.83 163.6 211.38 163.6 C 210.3 163.6 209.27 164.19 208.66 164.82 L 208.66 171.7 C 208.66 172 208.79 172.14 209.06 172.14 L 210.2 172.14 L 210.2 172.86 L 205.95 172.86 L 205.95 172.14 L 207.06 172.14 C 207.36 172.14 207.46 172 207.46 171.7 L 207.46 164 C 207.46 163.7 207.36 163.55 207.06 163.55 L 205.95 163.55 L 205.95 162.84 L 208.26 162.84 C 208.55 162.84 208.66 162.99 208.66 163.28 L 208.66 164 L 208.72 164 C 209.42 163.3 210.54 162.65 211.86 162.65 C 213.19 162.65 214.05 163.16 214.45 164.12 C 215.31 163.28 216.54 162.65 217.8 162.65 C 219.65 162.65 220.62 163.62 220.62 165.51 L 220.62 171.7 C 220.62 172 220.75 172.14 221.02 172.14 L 222.16 172.14 L 222.16 172.86 L 217.9 172.86 Z M 217.9 172.14"/>
<path fill="#ffffff" d="M 230.07 166.73 C 230.38 166.73 230.51 166.61 230.51 166.23 C 230.51 164.63 229.69 163.41 228.03 163.41 C 226.13 163.41 225.14 164.8 224.93 166.73 Z M 224.89 167.66 C 224.89 170.84 226.21 172.14 228.8 172.14 C 229.77 172.14 230.79 171.89 231.31 171.6 L 231.44 171.6 L 231.44 172.42 C 230.95 172.73 229.79 173.05 228.38 173.05 C 225.27 173.05 223.61 171.16 223.61 167.87 C 223.61 164.75 225.38 162.65 228.07 162.65 C 230.53 162.65 231.75 164.36 231.75 166.48 C 231.75 166.78 231.75 167.16 231.71 167.45 L 224.89 167.45 Z M 224.89 167.66"/>
<path fill="#ffffff" d="M 241.77 158.71 C 242.3 158.71 242.64 159.01 242.64 159.57 C 242.64 160.14 242.3 160.44 241.77 160.44 C 241.25 160.44 240.93 160.14 240.93 159.57 C 240.93 159.01 241.25 158.71 241.77 158.71 M 239.71 172.14 L 240.82 172.14 C 241.12 172.14 241.23 172 241.23 171.7 L 241.23 164.04 C 241.23 163.75 241.12 163.6 240.82 163.6 L 236.34 163.6 L 236.34 171.7 C 236.34 172 236.47 172.14 236.74 172.14 L 238.13 172.14 L 238.13 172.86 L 233.62 172.86 L 233.62 172.14 L 234.74 172.14 C 235.04 172.14 235.14 172 235.14 171.7 L 235.14 163.6 L 233.41 163.6 L 233.41 162.84 L 234.74 162.84 C 235.04 162.84 235.14 162.69 235.14 162.4 L 235.14 160.76 C 235.14 158.42 236.32 157.03 238.36 157.03 C 238.91 157.03 239.35 157.09 239.67 157.18 L 239.67 158.16 L 239.54 158.16 C 239.27 158.06 238.7 157.98 238.07 157.98 C 236.82 157.98 236.34 158.59 236.34 160.16 L 236.34 162.84 L 242.02 162.84 C 242.32 162.84 242.43 162.99 242.43 163.28 L 242.43 171.7 C 242.43 172 242.55 172.14 242.82 172.14 L 243.94 172.14 L 243.94 172.86 L 239.71 172.86 Z M 239.71 172.14"/>
</svg>
